<svg width="500" height="500" viewBox="0 0 500 500" fill="none" xmlns="http://www.w3.org/2000/svg">
<g clip-path="url(#clip0)">
<path d="M372.069 379.791C438.848 313.012 438.848 204.742 372.069 137.963C305.29 71.1839 197.02 71.1839 130.241 137.963C63.4622 204.742 63.4622 313.012 130.241 379.791C197.02 446.57 305.29 446.57 372.069 379.791Z" fill="#EDD9CC"/>
<path d="M188.58 280.05C187.9 279.88 185.34 298.28 184.49 308.67C183.64 319.06 188.41 344.1 188.41 344.1C188.41 344.1 188.41 347.68 189.09 349.89C189.77 352.1 193.86 355.51 193.86 355C193.86 354.49 196.76 345.12 196.76 345.12L195.06 341.2L195.74 305.77L199.83 287.2L188.58 280.05Z" fill="#FBA990"/>
<path d="M201.87 256.29C201.87 256.29 195.99 262.42 192.67 266.26C189.35 270.09 184.49 288.75 184.49 288.75L199.31 291.05L204.68 270.1L201.87 256.29Z" fill="#24ADB2"/>
<path d="M247.18 281.76C247.18 281.76 257.06 288.23 261.49 286.19C265.92 284.15 265.24 277.67 260.47 272.9C255.7 268.13 250.25 265.06 250.25 265.06L247.18 281.76Z" fill="#FBA990"/>
<path d="M195.5 369.06C195.5 369.06 197.23 405.58 197.23 414.55C197.23 414.55 200.68 416.28 207.93 414.55C207.93 414.55 213.11 381.83 212.76 367.33C207.58 363.89 196.88 360.09 195.5 369.06Z" fill="#FBA990"/>
<path d="M195.9 380.83C199.49 381.76 206.37 383.07 212.24 381.41C212.62 375.68 212.83 370.67 212.75 367.33C212.61 367.23 212.45 367.14 212.3 367.04L195.51 369.41C195.56 370.65 195.71 374.99 195.9 380.83Z" fill="#FB8877"/>
<path d="M193.43 329.72C193.43 329.72 192.74 366.99 193.78 373.2C194.13 374.93 213.79 374.24 214.83 373.2C215.87 372.16 217.59 345.25 217.59 345.25C217.59 345.25 217.59 344.56 220.35 343.87V328L193.43 329.72Z" fill="#3679A5"/>
<path d="M199.99 337.66C199.99 337.66 199.64 343.87 193.95 345.77" stroke="#024470" stroke-width="0.5176" stroke-miterlimit="10"/>
<path d="M217.07 335.76L217.42 342.15L219.31 343.53" stroke="#024470" stroke-width="0.5176" stroke-miterlimit="10"/>
<path d="M217.93 343.87C217.93 343.87 213.96 340.94 209.65 338.87" stroke="#024470" stroke-width="0.5176" stroke-miterlimit="10"/>
<path d="M215 346.11C215 346.11 214.31 367.68 212.24 373.37" stroke="#024470" stroke-width="0.5176" stroke-miterlimit="10"/>
<path d="M192.4 371.48C192.4 371.48 205.86 373.81 215.95 371.48C215.95 371.48 216.21 374.33 215.95 375.88C215.43 377.69 202.49 378.73 192.4 376.92V371.48Z" fill="#6A9CBC"/>
<path d="M192.62 432.15H206.61C208.05 432.15 209.16 430.85 208.93 429.43C208.7 427.99 208.48 426.98 208.83 426.63C209.48 425.98 209.61 423.78 208.96 421.45C208.31 419.12 208.7 413.82 208.18 413.56C207.66 413.3 206.63 414.21 205.46 413.82C204.3 413.43 203.65 409.03 199.25 410.07C194.85 411.11 195.89 414.21 195.89 414.21C195.89 414.21 195.63 416.02 194.85 419.77C194.42 421.83 191.98 425.75 190.6 429.15C190.02 430.59 191.07 432.15 192.62 432.15Z" fill="#024470"/>
<path d="M198.87 389.33C198.87 389.33 202.75 387.78 205.34 390.88" stroke="#E86D5E" stroke-width="0.445" stroke-miterlimit="10" stroke-linecap="round" stroke-linejoin="round"/>
<path d="M243.75 369.06C243.75 369.06 242.02 405.58 242.02 414.55C242.02 414.55 238.57 416.28 231.32 414.55C231.32 414.55 226.14 381.83 226.49 367.33C231.67 363.89 242.37 360.09 243.75 369.06Z" fill="#FBA990"/>
<path d="M227.09 382.66C230.41 383.35 236.29 383.86 243.33 381.51C243.53 375.48 243.69 370.92 243.74 369.52L226.54 371.98C226.62 375.03 226.82 378.69 227.09 382.66Z" fill="#FB8877"/>
<path d="M245.82 329.72C245.82 329.72 246.51 366.99 245.47 373.2C245.12 374.93 225.46 374.24 224.42 373.2C223.38 372.16 221.66 345.25 221.66 345.25C221.66 345.25 221.66 344.56 218.9 343.87V328L245.82 329.72Z" fill="#3679A5"/>
<path d="M239.26 337.66C239.26 337.66 239.61 343.87 245.3 345.77" stroke="#024470" stroke-width="0.5176" stroke-miterlimit="10"/>
<path d="M222.18 335.76L221.84 342.15L219.94 343.53" stroke="#024470" stroke-width="0.5176" stroke-miterlimit="10"/>
<path d="M221.32 343.87C221.32 343.87 225.29 340.94 229.6 338.87" stroke="#024470" stroke-width="0.5176" stroke-miterlimit="10"/>
<path d="M224.25 346.11C224.25 346.11 224.94 367.68 227.01 373.37" stroke="#024470" stroke-width="0.5176" stroke-miterlimit="10"/>
<path d="M246.86 371.48C246.86 371.48 233.4 373.81 223.31 371.48C223.31 371.48 223.05 374.33 223.31 375.88C223.83 377.69 236.77 378.73 246.86 376.92V371.48Z" fill="#6A9CBC"/>
<path d="M232.32 432.15H246.64C248.18 432.15 249.23 430.59 248.65 429.16C247.27 425.76 244.82 421.83 244.4 419.77C243.62 416.02 243.36 414.21 243.36 414.21C243.36 414.21 244.4 411.1 240 410.07C235.6 409.03 234.95 413.43 233.79 413.82C232.63 414.21 231.59 413.3 231.07 413.56C230.55 413.82 230.94 419.12 230.29 421.45C229.64 423.78 229.77 425.98 230.42 426.63C230.8 427.01 230.52 428.13 230.27 429.75C230.08 431.01 231.05 432.15 232.32 432.15Z" fill="#024470"/>
<path d="M240.39 389.33C240.39 389.33 236.51 387.78 233.92 390.88" stroke="#E86D5E" stroke-width="0.445" stroke-miterlimit="10" stroke-linecap="round" stroke-linejoin="round"/>
<path d="M224.83 248.29C224.83 248.29 239.67 254.85 243.12 263.13C246.92 271.07 247.61 325.59 247.61 329.38C246.57 331.8 236.22 335.59 221.73 334.9H217.93C203.44 335.59 193.08 331.79 192.05 329.38C192.05 325.58 192.74 271.06 196.54 263.13C199.99 254.85 214.83 248.29 214.83 248.29H224.83Z" fill="#24ADB2"/>
<path d="M213.01 234.28C213.01 234.28 211.68 231.91 209.9 233.24C208.12 234.57 211.38 240.66 212.57 239.02C213.75 237.39 213.01 234.28 213.01 234.28Z" fill="#FB8E74"/>
<path d="M227.35 235.47C227.35 235.47 228.89 233.23 230.54 234.71C232.19 236.2 228.4 241.96 227.37 240.23C226.33 238.51 227.35 235.47 227.35 235.47Z" fill="#FB8E74"/>
<path d="M213.75 241.66L213.68 251.97C213.68 251.97 214.64 255.6 220.13 255.46C225.62 255.31 226.14 251.6 226.14 251.6L225.47 240.62L213.75 241.66Z" fill="#FB8877"/>
<path d="M212.63 232.35C212.63 232.35 209.9 245.51 219.15 247.36C227.21 248.29 228.52 238.52 228.87 233.48C229.23 228.44 227.68 222.99 221.28 222.58C214.89 222.17 212.87 229.37 212.63 232.35Z" fill="#FBA990"/>
<path d="M216.63 227.07C216.63 227.07 215.95 232.05 212.49 233.57L212.32 234.92L211.81 233.23C211.81 233.23 209.7 231.63 210.63 228.08C211.56 224.53 215.02 223.52 215.02 223.52C215.02 223.52 215.44 220.82 220.42 220.56C225.4 220.31 230.64 224.7 231.4 229.51C231.4 230.19 229.8 230.35 229.8 230.35C229.8 230.35 229.72 234.23 228.7 235.84C228.7 235.84 227.26 233.9 227.35 230.52C227.36 230.53 220.35 230.19 216.63 227.07Z" fill="#984E57"/>
<path d="M248.72 332.47C249.06 327.06 247.37 292.61 247.37 292.61C238.42 289.06 234.2 277.24 234.2 277.24L233.69 253.26C233.18 251.23 230.4 250.98 230.4 250.98L230.15 265.17C226.75 267.89 221.93 268.78 220.96 268.94C219.71 268.78 213.54 267.89 210.14 265.17L209.89 250.98C209.89 250.98 207.1 251.23 206.6 253.26L206.09 277.24C206.09 277.24 201.87 289.06 192.92 292.61C192.92 292.61 191.23 327.07 191.57 332.47C191.57 332.47 190.89 361.35 190.39 366.93C189.93 372.02 216.75 370.42 221.44 370.1C225.75 370.42 250.39 372.01 249.93 366.93C249.39 361.35 248.72 332.47 248.72 332.47Z" fill="#024470"/>
<path d="M225.5 300.12H215.7C211.78 300.12 208.61 296.94 208.61 293.03V285.6H232.59V293.03C232.59 296.94 229.42 300.12 225.5 300.12Z" fill="#007AB5"/>
<path d="M234.7 253.99L256.21 267.75C256.21 267.75 252.8 280.36 249.4 283.76C249.4 283.76 237.39 279.03 237.39 278.52C237.38 278.01 234.19 263.32 234.7 253.99Z" fill="#24ADB2"/>
<path d="M257.4 286.19C257.4 286.19 263.53 288.23 267.96 283.46C272.39 278.69 277.33 250.24 277.33 250.24L271.2 247.85L256.72 275.28C256.72 275.28 252.29 282.1 257.4 286.19Z" fill="#FBA990"/>
<path d="M271.2 247.86L270.18 243.94L270.35 236.44C270.35 236.44 271.54 236.78 272.22 236.95C272.9 237.12 272.9 240.87 272.9 240.87L275.29 232.35L279.72 233.71V239L280.4 240.53C280.4 240.53 279.89 244.96 279.38 246.32C278.87 247.68 277.34 250.24 277.34 250.24C277.34 250.24 272.39 249.9 271.2 247.86Z" fill="#FBA990"/>
<path d="M272.22 236.95C272.22 236.95 272.82 237.63 272.73 238.23C272.64 238.83 272.9 240.87 272.9 240.87L274.18 243.08L274.35 244.95" stroke="#E86D5E" stroke-width="0.3599" stroke-miterlimit="10"/>
<path d="M272.9 240.87L275.29 232.35C275.29 232.35 276.4 232.52 276.48 233.54C276.48 234.56 275.46 240.1 275.46 240.1" stroke="#E86D5E" stroke-width="0.3599" stroke-miterlimit="10"/>
<path d="M276.06 232.61L277.76 233.12C277.76 233.12 278.27 233.8 278.19 234.82C278.1 235.84 277.51 240.36 277.51 240.36" stroke="#E86D5E" stroke-width="0.3599" stroke-miterlimit="10"/>
<path d="M277.76 233.12L279.72 233.72V239L279.46 240.7" stroke="#E86D5E" stroke-width="0.3599" stroke-miterlimit="10"/>
<path d="M279.72 239C279.72 239 280.49 239.68 280.4 240.53C280.31 241.38 279.89 244.11 279.89 244.11" stroke="#E86D5E" stroke-width="0.3599" stroke-miterlimit="10"/>
<path d="M258.76 271.53C258.76 271.53 262.51 273.74 262.34 278.51" stroke="#E86D5E" stroke-width="0.3599" stroke-miterlimit="10"/>
<path d="M304.55 267.13H258.49V309.94H304.55V267.13Z" fill="#FBBB90"/>
<path d="M311.6 317.35H251.44V307.78C251.44 305.19 253.54 303.08 256.14 303.08H306.9C309.49 303.08 311.6 305.18 311.6 307.78V317.35Z" fill="#FBD9C0"/>
<path d="M308.89 280.68H254.15V272.01C254.15 269.32 256.33 267.13 259.03 267.13H304.01C306.7 267.13 308.89 269.31 308.89 272.01V280.68Z" fill="#FBD9C0"/>
<path d="M376.19 189.06H341.47V282.8H376.19V189.06Z" fill="#FBD9C0"/>
<path d="M343.2 262.93H331.05V266.98H343.2V262.93Z" fill="#FBBB90"/>
<path d="M343.2 219.24H331.05V223.29H343.2V219.24Z" fill="#FBBB90"/>
<path d="M369.72 426.87H364.71V433.81H369.72V426.87Z" fill="#FF8D68"/>
<path d="M384.76 426.87H379.75V433.81H384.76V426.87Z" fill="#FF8D68"/>
<path d="M330.76 426.87H325.75V433.81H330.76V426.87Z" fill="#FF8D68"/>
<path d="M345.8 426.87H340.79V433.81H345.8V426.87Z" fill="#FF8D68"/>
<path d="M369.72 415.3H364.71V422.24H369.72V415.3Z" fill="#FF8D68"/>
<path d="M384.76 415.3H379.75V422.24H384.76V415.3Z" fill="#FF8D68"/>
<path d="M330.76 415.3H325.75V422.24H330.76V415.3Z" fill="#FF8D68"/>
<path d="M345.8 415.3H340.79V422.24H345.8V415.3Z" fill="#FF8D68"/>
<path d="M388.82 421.47H321.7V428.99H388.82V421.47Z" fill="#FBBB90"/>
<path d="M388.82 409.9H321.7V417.42H388.82V409.9Z" fill="#FBBB90"/>
<path d="M175.99 385.02H104.24V433.62H175.99V385.02Z" fill="#FF8D68"/>
<path d="M133.75 385.02H119.86V402.96H133.75V385.02Z" fill="#FBBB90"/>
<path d="M175.98 385.02H146.2V433.62H175.98V385.02Z" fill="#E86D5E"/>
<path d="M141.27 419.16H127.96V423.21H141.27V419.16Z" fill="#FBBB90"/>
<path d="M206.925 211.469L202.866 207.41L170.227 240.05L174.285 244.109L206.925 211.469Z" fill="#FBA584"/>
<path d="M175.8 192.82H163.29V334.12H175.8V192.82Z" fill="#464F6A"/>
<path d="M178.4 192.82H161.21V228.43H178.4V192.82Z" fill="#FBA584"/>
<path d="M322.92 244.101L326.979 240.043L294.339 207.403L290.28 211.462L322.92 244.101Z" fill="#FBA584"/>
<path d="M321.408 334.118H333.918V192.818H321.408V334.118Z" fill="#464F6A"/>
<path d="M318.815 228.426H336.005V192.816H318.815V228.426Z" fill="#FBA584"/>
<path d="M165.28 202.86L141.53 201.57L148.33 168.76C148.33 164.03 152.17 160.19 156.9 160.19H165.28V202.86Z" fill="#FBBB90"/>
<path d="M355.73 202.86H331.92V160.19H340.3C345.03 160.19 348.87 164.03 348.87 168.76L355.73 202.86Z" fill="#FBBB90"/>
<path d="M189.09 160.19H165.28V202.86H189.09V160.19Z" fill="#FF8D68"/>
<path d="M212.9 160.19H189.09V202.86H212.9V160.19Z" fill="#FBBB90"/>
<path d="M236.71 160.19H212.9V202.86H236.71V160.19Z" fill="#FF8D68"/>
<path d="M260.51 160.19H236.7V202.86H260.51V160.19Z" fill="#FBBB90"/>
<path d="M284.32 160.19H260.51V202.86H284.32V160.19Z" fill="#FF8D68"/>
<path d="M308.12 160.19H284.31V202.86H308.12V160.19Z" fill="#FBBB90"/>
<path d="M331.93 160.19H308.12V202.86H331.93V160.19Z" fill="#FF8D68"/>
<path d="M153.38 217.32C146.81 217.32 141.48 211.99 141.48 205.42V201.53H165.29V205.42C165.28 211.99 159.95 217.32 153.38 217.32Z" fill="#FF8D68"/>
<path d="M343.83 217.32C337.26 217.32 331.93 211.99 331.93 205.42V201.53H355.74V205.42C355.73 211.99 350.4 217.32 343.83 217.32Z" fill="#FF8D68"/>
<path d="M177.19 217.32C170.62 217.32 165.29 211.99 165.29 205.42V201.53H189.1V205.42C189.09 211.99 183.76 217.32 177.19 217.32Z" fill="#E86D5E"/>
<path d="M200.99 217.32C194.42 217.32 189.09 211.99 189.09 205.42V201.53H212.9V205.42C212.9 211.99 207.57 217.32 200.99 217.32Z" fill="#FF8D68"/>
<path d="M224.8 217.32C218.23 217.32 212.9 211.99 212.9 205.42V201.53H236.71V205.42C236.7 211.99 231.37 217.32 224.8 217.32Z" fill="#E86D5E"/>
<path d="M248.6 217.32C242.03 217.32 236.7 211.99 236.7 205.42V201.53H260.51V205.42C260.51 211.99 255.18 217.32 248.6 217.32Z" fill="#FF8D68"/>
<path d="M272.41 217.32C265.84 217.32 260.51 211.99 260.51 205.42V201.53H284.32V205.42C284.31 211.99 278.98 217.32 272.41 217.32Z" fill="#E86D5E"/>
<path d="M296.22 217.32C289.65 217.32 284.32 211.99 284.32 205.42V201.53H308.13V205.42C308.12 211.99 302.79 217.32 296.22 217.32Z" fill="#FF8D68"/>
<path d="M320.02 217.32C313.45 217.32 308.12 211.99 308.12 205.42V201.53H331.93V205.42C331.93 211.99 326.6 217.32 320.02 217.32Z" fill="#E86D5E"/>
<path d="M336.94 322.55H160.26V341.09H336.94V322.55Z" fill="#FBBB90"/>
<path d="M336.94 341.09H160.26V359.63H336.94V341.09Z" fill="#FBD9C0"/>
<path d="M336.94 396.73H160.26V415.27H336.94V396.73Z" fill="#FBD9C0"/>
<path d="M336.94 415.27H160.26V433.81H336.94V415.27Z" fill="#FAAE7F"/>
<path d="M336.94 378.01H160.26V396.55H336.94V378.01Z" fill="#FBBB90"/>
<path d="M336.94 359.65H160.26V378.19H336.94V359.65Z" fill="#FAAE7F"/>
<path d="M336.67 339.94H159.99V341.09H336.67V339.94Z" fill="#D49375"/>
<path d="M336.67 359.05H159.99V360.2H336.67V359.05Z" fill="#D49375"/>
<path d="M336.67 359.08H159.99V360.23H336.67V359.08Z" fill="#D49375"/>
<path d="M336.67 376.86H159.99V378.01H336.67V376.86Z" fill="#D49375"/>
<path d="M336.67 395.98H159.99V397.13H336.67V395.98Z" fill="#D49375"/>
<path d="M336.67 414.7H159.99V415.85H336.67V414.7Z" fill="#D49375"/>
<path d="M349.97 316.5H147.24V326.2H349.97V316.5Z" fill="#FBD9C0"/>
<path d="M357.765 422.628V325.808H282.935V422.628H357.765Z" fill="#FBF7EA"/>
<path d="M353.14 330.43H287.56V417.99H353.14V330.43Z" fill="#464F6A"/>
<path d="M308.104 374.893C308.104 376.138 307.884 377.228 307.444 378.166C307.004 379.103 306.374 379.827 305.552 380.336C304.736 380.845 303.799 381.1 302.74 381.1C301.692 381.1 300.758 380.848 299.936 380.344C299.114 379.841 298.478 379.123 298.027 378.192C297.575 377.254 297.347 376.178 297.341 374.963V374.338C297.341 373.094 297.564 372 298.009 371.057C298.461 370.108 299.094 369.382 299.91 368.878C300.732 368.369 301.669 368.114 302.722 368.114C303.776 368.114 304.71 368.369 305.526 368.878C306.348 369.382 306.981 370.108 307.427 371.057C307.878 372 308.104 373.091 308.104 374.329V374.893ZM305.465 374.321C305.465 372.995 305.228 371.989 304.753 371.3C304.279 370.611 303.602 370.267 302.722 370.267C301.849 370.267 301.174 370.608 300.7 371.291C300.225 371.968 299.985 372.964 299.98 374.277V374.893C299.98 376.184 300.217 377.185 300.691 377.897C301.166 378.608 301.849 378.964 302.74 378.964C303.614 378.964 304.285 378.623 304.753 377.94C305.222 377.251 305.459 376.25 305.465 374.937V374.321ZM312.6 376.473V380.926H309.996V368.288H314.926C315.875 368.288 316.709 368.462 317.426 368.809C318.15 369.156 318.705 369.651 319.093 370.293C319.48 370.93 319.674 371.656 319.674 372.472C319.674 373.71 319.249 374.688 318.398 375.406C317.554 376.117 316.382 376.473 314.883 376.473H312.6ZM312.6 374.364H314.926C315.615 374.364 316.139 374.202 316.497 373.878C316.862 373.554 317.044 373.091 317.044 372.489C317.044 371.87 316.862 371.369 316.497 370.987C316.133 370.606 315.629 370.409 314.987 370.397H312.6V374.364ZM329.075 375.449H324.075V378.834H329.943V380.926H321.471V368.288H329.925V370.397H324.075V373.409H329.075V375.449ZM341.747 380.926H339.143L334.074 372.611V380.926H331.47V368.288H334.074L339.152 376.621V368.288H341.747V380.926Z" fill="#FBF7EA"/>
<path d="M302.279 358.277L302.472 359.605L302.756 358.408L304.749 351.378H305.87L307.814 358.408L308.091 359.626L308.306 358.27L309.87 351.378H311.205L308.763 361.453H307.552L305.476 354.111L305.316 353.343L305.157 354.111L303.005 361.453H301.794L299.358 351.378H300.687L302.279 358.277ZM315.371 361.592C314.356 361.592 313.53 361.259 312.894 360.595C312.257 359.926 311.939 359.033 311.939 357.917V357.682C311.939 356.939 312.079 356.277 312.361 355.696C312.647 355.11 313.044 354.653 313.551 354.326C314.063 353.993 314.617 353.827 315.212 353.827C316.185 353.827 316.942 354.148 317.482 354.789C318.021 355.43 318.291 356.348 318.291 357.543V358.076H313.219C313.237 358.814 313.452 359.412 313.863 359.868C314.278 360.321 314.804 360.547 315.44 360.547C315.892 360.547 316.275 360.454 316.589 360.27C316.903 360.085 317.177 359.841 317.412 359.536L318.194 360.145C317.567 361.109 316.626 361.592 315.371 361.592ZM315.212 354.879C314.695 354.879 314.262 355.068 313.911 355.447C313.56 355.82 313.344 356.346 313.26 357.024H317.011V356.927C316.974 356.277 316.799 355.774 316.485 355.419C316.171 355.059 315.747 354.879 315.212 354.879ZM329.059 358.824H324.838L323.89 361.453H322.519L326.367 351.378H327.529L331.384 361.453H330.021L329.059 358.824ZM325.239 357.73H328.664L326.948 353.018L325.239 357.73ZM336.159 355.114C335.965 355.082 335.755 355.066 335.529 355.066C334.689 355.066 334.12 355.424 333.82 356.139V361.453H332.54V353.966H333.785L333.806 354.831C334.226 354.162 334.821 353.827 335.591 353.827C335.84 353.827 336.03 353.86 336.159 353.924V355.114ZM340.311 361.592C339.296 361.592 338.47 361.259 337.833 360.595C337.197 359.926 336.878 359.033 336.878 357.917V357.682C336.878 356.939 337.019 356.277 337.3 355.696C337.586 355.11 337.983 354.653 338.491 354.326C339.003 353.993 339.556 353.827 340.152 353.827C341.125 353.827 341.881 354.148 342.421 354.789C342.961 355.43 343.231 356.348 343.231 357.543V358.076H338.159C338.177 358.814 338.392 359.412 338.802 359.868C339.217 360.321 339.743 360.547 340.38 360.547C340.832 360.547 341.215 360.454 341.529 360.27C341.842 360.085 342.117 359.841 342.352 359.536L343.134 360.145C342.507 361.109 341.565 361.592 340.311 361.592ZM340.152 354.879C339.635 354.879 339.201 355.068 338.851 355.447C338.5 355.82 338.283 356.346 338.2 357.024H341.951V356.927C341.914 356.277 341.738 355.774 341.425 355.419C341.111 355.059 340.687 354.879 340.152 354.879Z" fill="#FBF7EA"/>
<path d="M296.72 420.51H290.74V433.82H296.72V420.51Z" fill="#FBF7EA"/>
<path d="M349.95 420.51H343.97V433.82H349.95V420.51Z" fill="#FBF7EA"/>
<path d="M220.25 363.2L226.61 433.79H230.08L227.19 363.2H220.25Z" fill="#FBF7EA"/>
<path d="M194.21 363.2L187.85 433.79H184.37L187.27 363.2H194.21Z" fill="#FBF7EA"/>
<path d="M231.82 366.09H182.64C179.44 366.09 176.85 363.5 176.85 360.3C176.85 357.1 179.44 354.51 182.64 354.51H231.82C235.02 354.51 237.61 357.1 237.61 360.3C237.61 363.5 235.02 366.09 231.82 366.09Z" fill="#E86D5E"/>
<path d="M404.82 370.28C423.377 370.28 438.42 355.237 438.42 336.68C438.42 318.123 423.377 303.08 404.82 303.08C386.263 303.08 371.22 318.123 371.22 336.68C371.22 355.237 386.263 370.28 404.82 370.28Z" fill="#E86D5E"/>
<path d="M404.82 361.61C418.588 361.61 429.75 350.448 429.75 336.68C429.75 322.912 418.588 311.75 404.82 311.75C391.052 311.75 379.89 322.912 379.89 336.68C379.89 350.448 391.052 361.61 404.82 361.61Z" fill="#FBF7EA"/>
<path d="M404.82 352.22C413.403 352.22 420.36 345.262 420.36 336.68C420.36 328.097 413.403 321.14 404.82 321.14C396.238 321.14 389.28 328.097 389.28 336.68C389.28 345.262 396.238 352.22 404.82 352.22Z" fill="#E86D5E"/>
<path d="M410.96 336.68C410.96 340.07 408.21 342.82 404.82 342.82C401.43 342.82 398.68 340.07 398.68 336.68C398.68 333.29 401.43 330.54 404.82 330.54C408.21 330.54 410.96 333.29 410.96 336.68Z" fill="#FBF7EA"/>
<path opacity="0.33" d="M425.41 363.23L405.33 336.4C404.97 335.92 404.29 335.82 403.81 336.18C403.33 336.54 403.23 337.22 403.59 337.7L423.66 364.51C424.26 364.1 424.84 363.67 425.41 363.23Z" fill="#464F6A"/>
<path d="M446.1 338.22H404.64C404.04 338.22 403.56 337.74 403.56 337.14C403.56 336.54 404.04 336.06 404.64 336.06H446.1C446.7 336.06 447.18 336.54 447.18 337.14C447.18 337.73 446.69 338.22 446.1 338.22Z" fill="#464F6A"/>
<path d="M454.36 334.02H443.52L440.5 337.04H440.41L440.45 337.09L440.41 337.13H440.5L443.52 340.16H454.36L451.29 337.09L454.36 334.02Z" fill="#E86D5E"/>
<path d="M75.67 307.97H59.95V325.38H75.67V307.97Z" fill="#E86D5E"/>
<path d="M100 288.65H84.28V325.38H100V288.65Z" fill="#F7BD63"/>
<path d="M124.32 281.97H108.6V325.38H124.32V281.97Z" fill="#6E8D51"/>
<path d="M124.81 329.46H59.15V331.86H124.81V329.46Z" fill="#FBBB90"/>
<path d="M105.2 202.85H66.83V212.83H105.2V202.85Z" fill="#F7BD63"/>
<path d="M105.2 210.04H66.83V212.82H105.2V210.04Z" fill="#ED914A"/>
<path d="M105.2 193.64H66.83V203.62H105.2V193.64Z" fill="#F7BD63"/>
<path d="M105.2 200.83H66.83V203.61H105.2V200.83Z" fill="#ED914A"/>
<path d="M105.2 212.63H66.83V222.61H105.2V212.63Z" fill="#F7BD63"/>
<path d="M105.2 219.83H66.83V222.61H105.2V219.83Z" fill="#ED914A"/>
<path d="M105.2 222.42H66.83V232.4H105.2V222.42Z" fill="#F7BD63"/>
<path d="M105.2 229.61H66.83V232.39H105.2V229.61Z" fill="#ED914A"/>
<path d="M105.2 232.2H66.83V242.18H105.2V232.2Z" fill="#F7BD63"/>
<path d="M105.2 239.4H66.83V242.18H105.2V239.4Z" fill="#ED914A"/>
<path d="M122.06 230.095C124.001 221.814 118.861 213.528 110.58 211.587C102.3 209.646 94.0136 214.785 92.0728 223.066C90.1319 231.347 95.2713 239.633 103.552 241.574C111.833 243.515 120.119 238.375 122.06 230.095Z" fill="#F7BD63"/>
<path d="M117.041 228.824C118.275 223.316 114.81 217.851 109.302 216.617C103.794 215.383 98.3293 218.848 97.0954 224.356C95.8616 229.863 99.3262 235.329 104.834 236.562C110.342 237.796 115.807 234.332 117.041 228.824Z" fill="#FFDB9B"/>
<path d="M108.41 228.73C108.41 228.37 108.31 228.07 108.1 227.84C107.89 227.61 107.53 227.4 107.02 227.2C106.02 226.84 105.28 226.43 104.8 225.98C104.32 225.53 104.07 224.9 104.07 224.09C104.07 223.33 104.31 222.72 104.8 222.23C105.28 221.75 105.93 221.46 106.75 221.38V219.93H107.82V221.39C108.61 221.51 109.23 221.84 109.68 222.38C110.13 222.92 110.35 223.63 110.34 224.5L110.32 224.53H108.4C108.4 224 108.29 223.59 108.07 223.3C107.85 223.01 107.55 222.87 107.18 222.87C106.79 222.87 106.51 222.98 106.32 223.2C106.13 223.42 106.04 223.72 106.04 224.09C106.04 224.44 106.14 224.73 106.34 224.94C106.54 225.16 106.91 225.37 107.44 225.58C108.43 225.97 109.17 226.39 109.65 226.83C110.13 227.28 110.37 227.9 110.37 228.7C110.37 229.48 110.13 230.11 109.65 230.58C109.17 231.05 108.51 231.32 107.69 231.41V232.75H106.62V231.42C105.78 231.33 105.08 231.04 104.54 230.53C103.99 230.02 103.73 229.27 103.74 228.28L103.75 228.25H105.67C105.67 228.85 105.81 229.28 106.08 229.54C106.36 229.8 106.71 229.93 107.14 229.93C107.55 229.93 107.86 229.82 108.08 229.6C108.3 229.38 108.41 229.1 108.41 228.73Z" fill="#F7BD63"/>
<path d="M162.75 138.87C177.314 138.87 189.12 127.064 189.12 112.5C189.12 97.9363 177.314 86.13 162.75 86.13C148.186 86.13 136.38 97.9363 136.38 112.5C136.38 127.064 148.186 138.87 162.75 138.87Z" fill="#6E8D51"/>
<path d="M128.43 126.59C131.026 126.59 133.13 124.486 133.13 121.89C133.13 119.294 131.026 117.19 128.43 117.19C125.834 117.19 123.73 119.294 123.73 121.89C123.73 124.486 125.834 126.59 128.43 126.59Z" fill="#6E8D51"/>
<path d="M152.145 102.991C152.145 101.446 152.646 100.196 153.649 99.2389C154.652 98.2707 155.966 97.7865 157.591 97.7865C159.24 97.7865 160.565 98.2649 161.568 99.2216C162.571 100.167 163.072 101.452 163.072 103.077V104.322C163.072 105.878 162.571 107.129 161.568 108.074C160.565 109.019 159.251 109.492 157.626 109.492C155.989 109.492 154.664 109.019 153.649 108.074C152.646 107.117 152.145 105.832 152.145 104.218V102.991ZM155.465 104.322C155.465 105.014 155.661 105.573 156.053 105.999C156.456 106.414 156.98 106.622 157.626 106.622C158.271 106.622 158.784 106.408 159.165 105.982C159.545 105.555 159.735 104.985 159.735 104.27V102.991C159.735 102.299 159.545 101.74 159.165 101.314C158.784 100.887 158.26 100.674 157.591 100.674C156.957 100.674 156.444 100.887 156.053 101.314C155.661 101.729 155.465 102.311 155.465 103.06V104.322ZM164.179 117.151C164.179 115.595 164.686 114.344 165.7 113.399C166.714 112.442 168.028 111.964 169.642 111.964C171.279 111.964 172.599 112.437 173.601 113.382C174.616 114.315 175.123 115.606 175.123 117.255V118.499C175.123 120.044 174.627 121.295 173.636 122.251C172.645 123.196 171.325 123.669 169.677 123.669C168.017 123.669 166.686 123.191 165.683 122.234C164.68 121.277 164.179 120.009 164.179 118.43V117.151ZM167.498 118.499C167.498 119.133 167.706 119.675 168.121 120.125C168.536 120.574 169.054 120.799 169.677 120.799C171.083 120.799 171.786 120.021 171.786 118.465V117.151C171.786 116.459 171.59 115.906 171.198 115.491C170.806 115.065 170.288 114.851 169.642 114.851C168.997 114.851 168.478 115.065 168.086 115.491C167.694 115.906 167.498 116.477 167.498 117.203V118.499ZM158.611 121.439L156.174 120.125L168.466 100.449L170.904 101.763L158.611 121.439Z" fill="#FBF7EA"/>
<path d="M303.69 106.29L298.09 131.83H287.25L293.2 104.89L303.69 106.29Z" fill="#E86D5E"/>
<path d="M337.28 103.49L326.44 106.29V90.54L337.28 93.34V103.49Z" fill="white"/>
<path d="M327.18 98.47L327.37 94.67H326.98L326.17 78.68L282.98 93.87H276.98V94.67V102.27V103.07H282.98L326.17 118.27L326.98 102.27H327.37L327.18 98.47Z" fill="#F7BD63"/>
<path d="M327.49 123.9C325.49 123.9 323.87 122.28 323.87 120.28V76.19C323.87 74.19 325.49 72.57 327.49 72.57C329.49 72.57 331.11 74.19 331.11 76.19V120.28C331.1 122.28 329.48 123.9 327.49 123.9Z" fill="#E86D5E"/>
<path d="M204.3 318.08H188.58L186.42 295.31H206.47L204.3 318.08Z" fill="#FBD9C0"/>
<path d="M230.31 318.08H214.6L212.43 295.31H232.48L230.31 318.08Z" fill="#FBD9C0"/>
<path d="M424.4 179.89H399.27C396.92 179.89 395 181.8 395 184.16V240.27C395 242.54 396.78 244.4 399.01 244.53H413.17V244.54H424.39C426.74 244.54 428.66 242.63 428.66 240.27V184.16C428.66 181.81 426.75 179.89 424.4 179.89Z" fill="#464F6A"/>
<path d="M424.4 180.84H420.31L419.57 182.16C419.18 182.85 418.45 183.28 417.65 183.28H414.53H409.14H406.02C405.23 183.28 404.49 182.85 404.1 182.16L403.36 180.84H399.27C397.44 180.84 395.95 182.33 395.95 184.16V240.27C395.95 242.1 397.44 243.59 399.27 243.59H424.4C426.23 243.59 427.72 242.1 427.72 240.27V184.16C427.71 182.33 426.23 180.84 424.4 180.84Z" fill="#FF8D68"/>
<path d="M415.79 182.03H407.97C407.8 182.03 407.65 181.89 407.65 181.71C407.65 181.54 407.79 181.39 407.97 181.39H415.79C415.96 181.39 416.11 181.53 416.11 181.71C416.1 181.88 415.96 182.03 415.79 182.03Z" fill="#FBD9C0"/>
<path d="M422.8 223.47H400.75C399.9 223.47 399.21 222.78 399.21 221.93V197.57C399.21 196.72 399.9 196.03 400.75 196.03H422.8C423.65 196.03 424.34 196.72 424.34 197.57V221.93C424.35 222.78 423.66 223.47 422.8 223.47Z" fill="#FBF7EA"/>
<path d="M411.24 225.63H399.68V227.17H411.24V225.63Z" fill="#FBF7EA"/>
<path d="M423.65 228.98H399.68V230.52H423.65V228.98Z" fill="#FBF7EA"/>
<path d="M404.61 207.9L410.16 213.45L420.49 203.12" stroke="#6E8D51" stroke-width="4.6253" stroke-miterlimit="10"/>
</g>
<defs>
<clipPath id="clip0">
<rect width="500" height="500" fill="white"/>
</clipPath>
</defs>
</svg>
