<svg width="1032" height="600" viewBox="0 0 1032 600" fill="none" xmlns="http://www.w3.org/2000/svg">
<path d="M941.86 477.08C941.83 480.11 941.78 483.12 941.69 486.12C941.6 489.56 941.46 492.98 941.29 496.4C941.25 497.14 941.21 497.88 941.17 498.61C941.14 499.16 941.11 499.71 941.07 500.25C940.88 503.56 940.65 506.86 940.38 510.14C940.34 510.56 940.32 510.97 940.28 511.4C939.34 522.37 937.97 533.16 936.15 543.72C936.12 543.93 936.1 544.12 936.06 544.32C936.06 544.33 936.06 544.33 936.05 544.35C935.72 546.31 935.36 548.26 935 550.2C934.65 551.94 934.31 553.69 933.95 555.43C932.98 560.18 931.88 564.88 930.7 569.54C930.62 569.83 930.55 570.13 930.47 570.43C928.73 577.23 926.78 583.9 924.59 590.44C924.56 590.54 924.53 590.65 924.49 590.75C923.46 593.83 922.39 596.9 921.26 599.91H98.44C96.5 597.14 94.62 594.34 92.78 591.51C92.54 591.16 92.31 590.8 92.09 590.45C83.76 577.65 76.23 564.3 69.56 550.65C68.39 548.26 67.25 545.86 66.13 543.47C65.26 541.61 64.41 539.75 63.59 537.89C56.69 522.41 50.86 506.63 46.17 490.82C35.36 454.56 30.47 418.25 32.17 385.48C34.16 347.52 45.01 314.32 65.8 291.52C95.22 259.27 133.15 260.31 181.06 265.31C187.58 265.99 194.29 266.75 201.18 267.49C205.62 267.98 210.13 268.47 214.74 268.94C226.14 270.09 238.05 271.12 250.44 271.74C252.47 271.83 254.49 271.92 256.55 271.98C260.62 272.15 264.75 272.24 268.93 272.28C274.81 272.34 280.78 272.28 286.87 272.06C287.04 272.06 287.19 272.06 287.36 272.05C287.87 272.04 288.37 272.01 288.89 271.99C292.78 271.85 296.72 271.63 300.71 271.34C304.2 271.1 307.71 270.8 311.28 270.44C312.91 270.27 314.55 270.09 316.19 269.9C316.82 269.82 317.46 269.76 318.1 269.67C325.37 268.8 332.8 267.67 340.36 266.26C358.99 262.77 378.49 257.52 398.87 249.9C418.56 242.54 436.37 233.98 452.56 224.55C484.08 206.22 509.52 184.59 530.95 162.14C543.25 149.25 554.22 136.08 564.28 123.11C569.67 116.14 574.79 109.24 579.71 102.46C584.67 95.6 589.45 88.87 594.05 82.34C627.59 34.91 653.36 -1.91 695.49 0.109997C732.68 1.89 773.52 33.49 811.05 82.82C824.93 101.06 838.36 121.72 850.99 144.19C890.84 215.06 922.72 303.98 935.65 391.73C938.27 409.46 940.1 427.14 941.06 444.61C941.68 455.5 941.95 466.35 941.86 477.08Z" fill="#EDD9CC"/>
<path d="M830.88 128.81V456.62C830.88 471.17 819.04 483 804.49 483H227.52C213 483 201.17 471.17 201.17 456.62V128.81C201.17 114.26 213 102.43 227.52 102.43H804.48C810.7 102.43 816.73 104.64 821.48 108.63C827.45 113.66 830.88 121.02 830.88 128.81Z" fill="white"/>
<path d="M841.36 590.08C838.67 589.76 835.99 589.38 833.29 588.9C824.45 587.35 815.56 584.86 806.72 581.34C780.68 570.97 761.85 541.98 749.6 518.2C738.13 495.89 719.4 451.44 741.59 430.15C757.13 415.21 780.04 414.33 797.29 402.37C826.73 381.97 820.69 339.69 846.39 318.08C893.09 278.82 917.75 351.6 918.48 386.57C920.31 476.43 984.98 433.79 985.32 491.95C985.62 542.36 916.43 598.63 841.36 590.08Z" fill="#74CBD8"/>
<path d="M866.26 484.69C864.27 499.01 861.69 514.28 858.3 529.91C857.76 532.52 857.17 535.15 856.55 537.77C852.58 555.14 847.59 572.85 841.36 590.08C838.67 589.76 835.99 589.38 833.29 588.9C839.44 571.95 844.44 554.28 848.51 536.51C849.1 533.9 849.68 531.3 850.24 528.69C870.08 435.96 865.29 343.53 865.19 341.97C865.05 339.77 866.75 337.87 868.95 337.73C871.17 337.61 873.05 339.29 873.19 341.51C873.22 342.16 876.85 408.46 866.26 484.69Z" fill="#ECF8FB"/>
<path d="M860.04 538.11C856.94 537.86 853.78 537.46 850.55 536.91C780.35 524.91 764.89 450.27 764.74 449.52C764.31 447.35 765.73 445.24 767.9 444.82C770.07 444.39 772.18 445.8 772.61 447.97C772.75 448.67 787.23 517.95 851.91 529.01C916.84 540.1 954.66 483.04 955.04 482.46C956.24 480.6 958.73 480.07 960.58 481.28C962.44 482.48 962.97 484.97 961.76 486.82C961.36 487.41 924.28 543.36 860.04 538.11Z" fill="#ECF8FB"/>
<path d="M894.12 583C892.07 582.14 890.04 581.24 888.02 580.26C881.39 577.06 874.94 573.1 868.76 568.34C850.55 554.32 842.2 527.23 837.87 505.72C833.83 485.55 829.02 446.29 851.3 434.47C866.91 426.17 885.18 430.61 901.47 425.04C929.26 415.55 933.98 380.85 959.1 369.57C1004.74 349.08 1007.87 412.01 1000.6 439.76C981.89 511.05 1042.47 491.92 1029.69 537.87C1018.61 577.71 951.42 606.57 894.12 583Z" fill="#B1E2EB"/>
<path d="M937.39 505.45C932.61 516.29 927.15 527.76 920.97 539.33C919.96 541.27 918.9 543.21 917.83 545.14C910.8 557.95 902.9 570.8 894.12 582.99C892.07 582.13 890.04 581.23 888.02 580.25C896.67 568.26 904.58 555.44 911.77 542.34C912.82 540.42 913.86 538.49 914.88 536.56C951.33 467.87 968.27 393.88 968.55 392.63C968.93 390.86 970.7 389.75 972.47 390.13C974.25 390.53 975.35 392.28 974.96 394.07C974.84 394.59 962.84 447.7 937.39 505.45Z" fill="#ECF8FB"/>
<path d="M920.5 546.19C918.11 545.29 915.71 544.27 913.28 543.11C860.6 517.9 865.14 455.56 865.19 454.94C865.34 453.13 866.93 451.79 868.73 451.94C870.53 452.09 871.88 453.68 871.74 455.48C871.69 456.06 867.57 513.96 916.11 537.18C964.83 560.49 1007.47 523.96 1007.89 523.59C1009.26 522.39 1011.33 522.53 1012.53 523.9C1013.73 525.27 1013.59 527.34 1012.22 528.54C1011.8 528.92 970 564.74 920.5 546.19Z" fill="#ECF8FB"/>
<path d="M190.1 590.08C192.79 589.76 195.47 589.38 198.17 588.9C207.01 587.35 215.9 584.86 224.74 581.34C250.78 570.97 269.61 541.98 281.86 518.2C293.33 495.89 312.06 451.44 289.87 430.15C274.33 415.21 251.42 414.33 234.17 402.37C204.73 381.97 210.77 339.69 185.07 318.08C138.37 278.82 113.71 351.6 112.98 386.57C111.15 476.43 46.48 433.79 46.14 491.95C45.84 542.36 115.03 598.63 190.1 590.08Z" fill="#74CBD8"/>
<path d="M165.2 484.69C167.19 499.01 169.77 514.28 173.16 529.91C173.7 532.52 174.29 535.15 174.91 537.77C178.88 555.14 183.87 572.85 190.1 590.08C192.79 589.76 195.47 589.38 198.17 588.9C192.02 571.95 187.02 554.28 182.95 536.51C182.36 533.9 181.78 531.3 181.22 528.69C161.38 435.96 166.17 343.53 166.27 341.97C166.41 339.77 164.71 337.87 162.51 337.73C160.29 337.61 158.41 339.29 158.27 341.51C158.24 342.16 154.61 408.46 165.2 484.69Z" fill="#ECF8FB"/>
<path d="M171.42 538.11C174.52 537.86 177.68 537.46 180.91 536.91C251.11 524.91 266.57 450.27 266.72 449.52C267.15 447.35 265.73 445.24 263.56 444.82C261.39 444.39 259.28 445.8 258.85 447.97C258.71 448.67 244.23 517.95 179.55 529.01C114.62 540.1 76.8 483.04 76.42 482.46C75.22 480.6 72.73 480.07 70.88 481.28C69.02 482.48 68.49 484.97 69.7 486.82C70.09 487.41 107.18 543.36 171.42 538.11Z" fill="#ECF8FB"/>
<path d="M137.34 583C139.39 582.14 141.42 581.24 143.44 580.26C150.07 577.06 156.52 573.1 162.7 568.34C180.91 554.32 189.26 527.23 193.59 505.72C197.63 485.55 202.44 446.29 180.16 434.47C164.55 426.17 146.28 430.61 129.99 425.04C102.2 415.55 97.48 380.85 72.36 369.57C26.72 349.08 23.59 412.01 30.86 439.76C49.57 511.05 -11.01 491.92 1.76999 537.87C12.85 577.71 80.04 606.57 137.34 583Z" fill="#B1E2EB"/>
<path d="M94.07 505.45C98.85 516.29 104.31 527.76 110.49 539.33C111.5 541.27 112.56 543.21 113.63 545.14C120.66 557.95 128.56 570.8 137.34 582.99C139.39 582.13 141.42 581.23 143.44 580.25C134.79 568.26 126.88 555.44 119.69 542.34C118.64 540.42 117.6 538.49 116.58 536.56C80.13 467.87 63.19 393.88 62.91 392.63C62.53 390.86 60.76 389.75 58.99 390.13C57.21 390.53 56.11 392.28 56.5 394.07C56.62 394.59 68.62 447.7 94.07 505.45Z" fill="#ECF8FB"/>
<path d="M110.96 546.19C113.35 545.29 115.75 544.27 118.18 543.11C170.86 517.9 166.32 455.56 166.27 454.94C166.12 453.13 164.53 451.79 162.73 451.94C160.92 452.09 159.58 453.68 159.72 455.48C159.77 456.06 163.89 513.96 115.35 537.18C66.63 560.49 23.99 523.96 23.57 523.59C22.2 522.39 20.13 522.53 18.93 523.9C17.73 525.27 17.87 527.34 19.24 528.54C19.66 528.92 61.46 564.74 110.96 546.19Z" fill="#ECF8FB"/>
<path d="M466.76 282.78C466.76 299.22 463.62 314.9 457.91 329.31C454.44 338.02 450.07 346.29 444.83 353.91C422.11 387.29 383.77 409.19 340.35 409.19C302.52 409.19 268.56 392.54 245.41 366.2C225.83 343.94 213.98 314.75 213.98 282.78C213.98 212.98 270.56 156.4 340.36 156.4C410.18 156.4 466.76 212.98 466.76 282.78Z" fill="#BBE1EE"/>
<path d="M457.91 329.31C454.44 338.02 450.07 346.29 444.83 353.91C422.11 387.29 383.77 409.19 340.35 409.19C302.52 409.19 268.56 392.54 245.41 366.2L340.35 282.78H419.15L457.91 329.31Z" fill="#5A86BD"/>
<path d="M466.76 282.78C466.76 299.22 463.62 314.9 457.91 329.31C454.44 338.02 450.07 346.29 444.83 353.91L340.35 282.77V156.4C410.18 156.4 466.76 212.98 466.76 282.78Z" fill="#98BFDB"/>
<path d="M793.23 200.24H757.79V413.89H793.23V200.24Z" fill="#444BA0"/>
<path d="M740.81 231.07H705.37V413.89H740.81V231.07Z" fill="#97C6DF"/>
<path d="M688.4 261.9H652.96V413.89H688.4V261.9Z" fill="#444BA0"/>
<path d="M635.98 285.96H600.54V413.89H635.98V285.96Z" fill="#97C6DF"/>
<path d="M583.57 323.56H548.13V413.88H583.57V323.56Z" fill="#444BA0"/>
<path d="M531.16 354.4H495.72V413.89H531.16V354.4Z" fill="#97C6DF"/>
<path d="M747.37 200.24H495.72V203.32H747.37C748.23 203.32 748.91 202.61 748.91 201.78C748.91 200.92 748.23 200.24 747.37 200.24Z" fill="#ACBEBE"/>
<path d="M699.21 232.62C699.21 233.45 698.53 234.16 697.67 234.16H495.72V231.08H697.67C698.53 231.08 699.21 231.75 699.21 232.62Z" fill="#ACBEBE"/>
<path d="M640.82 263.45C640.82 264.28 640.11 264.99 639.28 264.99H495.72V261.91H639.27C640.11 261.91 640.82 262.59 640.82 263.45Z" fill="#ACBEBE"/>
<path d="M590.47 287.5C590.47 288.36 589.79 289.04 588.93 289.04H495.72V285.96H588.93C589.79 285.96 590.47 286.64 590.47 287.5Z" fill="#ACBEBE"/>
<path d="M534.23 325.11C534.23 325.94 533.55 326.65 532.69 326.65H495.72V323.57H532.69C533.55 323.57 534.23 324.25 534.23 325.11Z" fill="#ACBEBE"/>
<path d="M610.72 581.93H421.33L431.19 538.45L448.09 463.9L450.07 455.18H581.98L583.95 463.9L600.86 538.45L610.72 581.93Z" fill="#006F7C"/>
<path d="M600.86 538.45H431.19L448.09 463.9H583.95L600.86 538.45Z" fill="#006F7C"/>
<path d="M359.14 343.16C359.14 343.16 369.62 354.19 376.29 351.27C382.96 348.35 381.4 336.84 364.23 334.3C347.07 331.75 359.14 343.16 359.14 343.16Z" fill="#FDA160"/>
<path d="M369.63 334.13C369.51 334.57 369.39 335 369.26 335.41C367.44 341.16 364.04 344.47 362.17 345.94C361.35 346.58 360.82 346.88 360.82 346.88C360.82 346.88 360.78 346.85 360.72 346.82C358.91 345.77 333.2 330.59 315.06 312.04C312.39 309.31 309.89 306.51 307.64 303.66C286.2 276.49 278.18 253.23 278.18 253.23L309.5 253.18C312.84 263.19 316.99 272.26 321.56 280.4C321.56 280.4 321.56 280.4 321.57 280.41C321.58 280.45 321.61 280.49 321.63 280.53C321.64 280.56 321.67 280.59 321.68 280.63C322.13 281.44 322.58 282.22 323.04 283C323.1 283.12 323.17 283.23 323.25 283.36C343.19 317.25 369.63 334.13 369.63 334.13Z" fill="#09053D"/>
<path d="M360.71 346.82C358.9 345.77 333.19 330.59 315.05 312.04L314.52 300.03L321.55 280.4C321.55 280.4 321.55 280.4 321.56 280.41C321.57 280.45 321.6 280.49 321.62 280.53C321.63 280.56 321.66 280.59 321.67 280.63C321.9 281 322.38 281.82 323.03 283C323.09 283.12 323.16 283.23 323.24 283.36C326.61 289.49 333.06 306.19 335.99 316.16C340.37 331.02 359.11 345.73 360.71 346.82Z" fill="#09053D"/>
<path d="M834.44 93.24C827.76 87.62 819.62 84 811.04 82.78C808.87 82.46 806.69 82.31 804.48 82.31H227.52C201.9 82.31 181.05 103.17 181.05 128.8V456.61C181.05 470.08 186.81 482.24 196 490.74C201.57 495.9 208.39 499.71 215.96 501.66C219.65 502.61 223.53 503.11 227.52 503.11H804.48C804.97 503.11 805.45 503.1 805.93 503.08C807.35 503.04 808.77 502.93 810.15 502.76C812.48 502.48 814.77 502.02 816.99 501.4C818.32 501.03 819.63 500.59 820.92 500.1C822.64 499.46 824.29 498.71 825.9 497.87C826.77 497.42 827.63 496.95 828.48 496.45C828.48 496.44 828.48 496.44 828.48 496.44C830.99 494.93 833.36 493.17 835.52 491.21C841.6 485.76 846.23 478.73 848.77 470.76C849.28 469.21 849.69 467.62 850.03 465.99C850.31 464.66 850.53 463.3 850.67 461.91C850.88 460.18 850.98 458.41 850.98 456.62V128.81C850.98 115.08 844.96 102.12 834.44 93.24ZM201.17 128.81C201.17 114.26 213 102.43 227.52 102.43H804.48C810.7 102.43 816.73 104.64 821.48 108.63C827.45 113.66 830.87 121.02 830.87 128.81V456.62C830.87 465.75 826.2 473.82 819.12 478.56C814.92 481.37 809.9 483 804.48 483H227.52C226.29 483 225.07 482.91 223.88 482.74C211.08 480.96 201.17 469.92 201.17 456.62V128.81V128.81Z" fill="#00A0B3"/>
<path d="M840.93 437.68V456.62C840.93 476.73 824.61 493.06 804.49 493.06H227.53C207.42 493.06 191.12 476.74 191.12 456.62V437.68H840.93Z" fill="#00A0B3"/>
<path d="M641.11 591.22H390.94C388.06 591.22 385.73 588.89 385.73 586.01C385.73 583.13 388.06 580.8 390.94 580.8H641.12C644 580.8 646.33 583.13 646.33 586.01C646.33 586.89 646.11 587.72 645.73 588.44C644.85 590.1 643.11 591.22 641.11 591.22Z" fill="#006F7C"/>
<path d="M312.13 567.9C312.13 567.9 315.92 576.99 325.05 578.82C334.18 580.65 337.88 584.74 338.29 590.7L298.45 591.23C298.45 591.23 295.91 583.89 298.16 568.9C300.4 553.91 312.13 567.9 312.13 567.9Z" fill="#050725"/>
<path d="M211.94 558.51C211.94 558.51 210.34 568.23 217.12 574.62C223.89 581.01 224.87 586.44 222.05 591.71L187.98 571.05C187.98 571.05 189.72 563.48 199.56 551.95C209.4 540.43 211.94 558.51 211.94 558.51Z" fill="#050725"/>
<path d="M320.74 572.78C320.74 572.78 313.15 581.09 294.89 576.46L285.92 483.36L285.61 480.23L283.66 459.92L279.79 443.77L279.25 441.52L260.53 363.58L261.9 361.21L278.33 332.95L279.72 330.55L306.61 345.3C306.61 345.3 306.87 347.15 307.29 350.39C307.47 351.74 307.67 353.3 307.92 355.07C308.36 358.37 308.87 362.37 309.45 366.89C311.48 382.75 314.18 404.83 316.17 424.38C318.11 443.44 319.36 460.11 318.65 466.25C318.61 466.57 320.74 572.78 320.74 572.78Z" fill="#4B0A45"/>
<path d="M311.98 359.88C311.98 359.88 311 362.5 309.31 366.95V366.96C307.15 372.69 303.82 381.46 299.92 391.54C293.09 409.19 268.87 466.04 268.28 467.18C267.81 468.1 257.98 487.17 247.05 508.39C232.9 535.88 216.88 567.01 216.88 567.01C216.88 567.01 201.69 570.68 192.36 558.02L222.25 486.64L222.81 485.29L231.03 465.64L237.56 450.03L237.82 449.04L262.12 356.49L262.72 354.21L278.59 344.43L295.26 334.17L295.45 334.48L303.65 347.09L311.98 359.88Z" fill="#761461"/>
<path d="M327.77 375.84C327.77 375.84 290.94 386.5 263.29 373.49C261.08 372.46 258.95 371.28 256.89 369.94C255.54 369.05 254.23 368.09 252.96 367.07C252.96 367.07 252.42 356.82 252.32 341.96C252.23 328.52 252.51 311.31 253.87 294.52C256.44 263.19 262.81 233.31 277.74 232.09H291.61C291.62 232.09 337.52 254.85 327.77 375.84Z" fill="#09053D"/>
<path d="M292.36 260.39C292.36 260.39 283.75 280.34 288.76 300.03C293.13 317.18 284.42 333.84 303.61 359.79L253.47 300.03L275.54 260.39H292.36Z" fill="#09053D"/>
<path d="M296.11 359.79L291.23 369.44C284.24 367.91 271.29 373.69 263.29 373.49C261.08 372.46 258.95 371.28 256.89 369.94C255.54 369.05 254.23 368.09 252.96 367.07C252.96 367.07 252.42 356.82 252.32 341.96C252.23 328.52 252.51 311.31 253.87 294.52L254.04 294.38L296.11 359.79Z" fill="#09053D"/>
<path opacity="0.7" d="M316.17 424.39C309.27 442.72 299.31 463.54 285.61 480.23L283.66 459.92L279.79 443.77L279.25 441.52C286.78 423.7 296.08 401.44 299.92 391.54C303.82 381.46 307.16 372.69 309.31 366.96V366.95L309.45 366.9C311.48 382.76 314.18 404.84 316.17 424.39Z" fill="#761461"/>
<path d="M233.05 537.58C232.74 537.58 232.43 537.51 232.14 537.36C231.16 536.85 230.77 535.65 231.28 534.67C231.54 534.17 257.35 484.03 270.15 457.84C282.92 431.71 301.66 381.51 301.84 381C302.23 379.96 303.38 379.44 304.41 379.82C305.45 380.21 305.97 381.36 305.59 382.39C305.4 382.9 286.59 433.28 273.74 459.59C260.92 485.82 235.09 535.99 234.84 536.5C234.48 537.18 233.78 537.58 233.05 537.58Z" fill="#CE61AE"/>
<path d="M320.13 556.38C319.04 556.38 318.15 555.5 318.13 554.41C318.12 553.84 317.33 497.46 316.3 468.33C315.28 439.27 308.21 386.15 308.14 385.61C307.99 384.52 308.76 383.51 309.86 383.36C310.95 383.22 311.96 383.98 312.11 385.08C312.18 385.62 319.28 438.93 320.3 468.18C321.32 497.36 322.12 553.78 322.13 554.35C322.15 555.45 321.26 556.36 320.16 556.38C320.15 556.38 320.14 556.38 320.13 556.38Z" fill="#CE61AE"/>
<path d="M291.06 408.73L308.79 426.42C311.84 429.46 316.79 429.46 319.84 426.41L358.42 387.73C361.46 384.68 361.46 379.72 358.41 376.68L340.68 358.99C339.42 357.73 337.85 357 336.21 356.78C333.87 356.46 331.42 357.2 329.63 359L291.05 397.67C288 400.73 288 405.69 291.06 408.73Z" fill="#070936"/>
<path d="M295.61 385.66L299.33 389.37L302.95 385.74L299.23 382.03C298.96 381.76 298.77 381.4 298.7 381.01C298.59 380.41 298.79 379.78 299.22 379.34L311.28 367.25C312.02 366.51 313.23 366.49 313.97 367.24L317.69 370.95L321.31 367.32L317.59 363.61C314.85 360.87 310.38 360.88 307.64 363.63L295.58 375.72C293.97 377.34 293.24 379.65 293.64 381.92C293.9 383.34 294.58 384.63 295.61 385.66Z" fill="#23328A"/>
<g opacity="0.5">
<path opacity="0.5" d="M354.79 391.36L358.41 387.73C361.45 384.68 361.45 379.72 358.4 376.68L340.67 358.99C339.41 357.73 337.84 357 336.2 356.78C333.86 356.46 331.41 357.2 329.62 359L326 362.63C327.79 360.83 330.24 360.08 332.58 360.41C334.21 360.63 335.78 361.36 337.05 362.62L354.78 380.31C357.83 383.36 357.83 388.31 354.79 391.36Z" fill="#181A72"/>
</g>
<path d="M290.22 233.78C291.98 232.93 294.37 234.27 295.58 236.77C296.78 239.26 296.33 241.97 294.57 242.82C292.81 243.67 290.42 242.33 289.21 239.83C288.01 237.33 288.46 234.62 290.22 233.78Z" fill="#A8DEE3"/>
<path d="M299.85 360.03C299.85 360.03 317.57 369.96 310.5 377.22C300.74 387.24 292.37 366.59 292.37 366.59L299.85 360.03Z" fill="#FDA160"/>
<path d="M297.39 210.19L296.86 218.35L295.94 232.46L295.66 236.85C287.39 240.9 276.83 233.45 276.83 233.45L280.17 213.73L280.27 213.1L286.61 212.02L297.39 210.19Z" fill="#FDA160"/>
<path d="M296.19 251.53L272.04 307.49L303.61 359.79C303.61 359.79 300.16 367.42 291.24 369.44C291.24 369.44 247.68 321.38 244.82 311.45C241.41 299.61 250.32 260.35 265.24 242.97L296.19 251.53Z" fill="#09053D"/>
<path d="M822.51 462.4H685.8V473.11H822.51V462.4Z" fill="#FF9A00"/>
<path d="M806.44 483.82H669.75V494.53H806.44V483.82Z" fill="#FF9A00"/>
<path d="M819.12 473.11H682.43V483.82H819.12V473.11Z" fill="#FF9A00"/>
<path d="M825.9 494.53H689.19V505.23H825.9V494.53Z" fill="#FF9A00"/>
<path d="M811.23 537.37H674.54V548.08H811.23V537.37Z" fill="#FF9A00"/>
<path d="M822.51 505.23H685.8V515.94H822.51V505.23Z" fill="#FF9A00"/>
<path d="M825.9 548.08H689.19V558.79H825.9V548.08Z" fill="#FF9A00"/>
<path d="M823.63 580.22H686.94V590.92H823.63V580.22Z" fill="#FF9A00"/>
<path d="M822.51 558.79H685.8V569.5H822.51V558.79Z" fill="#FF9A00"/>
<path d="M828.42 526.67H691.73V537.37H828.42V526.67Z" fill="#FF9A00"/>
<path d="M812.94 569.51H676.22V580.22H812.94V569.51Z" fill="#FF9A00"/>
<path d="M819.12 515.95H682.43V526.68H819.12V515.95Z" fill="#FF9A00"/>
<path d="M737.22 537.37V548.08H751.88V558.8H748.49V569.51H738.92V580.21H749.63V590.92H686.94V580.21H676.22V569.51H685.81V558.8H689.19V548.08H674.53V537.37H691.73V526.67H682.42V515.94H685.81V505.24H689.19V494.53H669.75V483.83H682.42V473.1H685.81V462.4H748.49V473.1H745.11V483.83H732.43V494.53H751.88V505.24H748.49V515.94H745.11V526.67H754.41V537.37H737.22Z" fill="#E26702"/>
<path d="M811.23 537.37V548.08H825.9V558.79H822.51V569.51H812.94V580.22H823.64V590.92H803.69V580.22H792.96V569.51H802.55V558.79H805.93V548.08H791.28V537.37H808.47V526.67H799.17V515.95H802.55V505.23H805.93V494.53H786.5V483.82H799.17V473.11H802.55V462.4H822.51V473.11H819.12V483.82H806.45V494.53H825.9V505.23H822.51V515.95H819.12V526.67H828.42V537.37H811.23Z" fill="#FAE00E"/>
<path d="M752.85 461.59C792.2 461.59 824.1 429.69 824.1 390.34C824.1 350.99 792.2 319.09 752.85 319.09C713.5 319.09 681.6 350.99 681.6 390.34C681.6 429.69 713.5 461.59 752.85 461.59Z" fill="#FF9C00"/>
<path d="M816.68 377.84C815.11 369.86 812.1 362.39 807.9 355.75C803.96 349.5 798.98 343.96 793.21 339.38C783.32 331.54 771.11 326.5 757.78 325.5C756.15 325.37 754.5 325.31 752.84 325.31C748.73 325.31 744.71 325.69 740.81 326.43C726.95 329.03 714.65 336.04 705.38 345.93C696.35 355.58 690.23 367.96 688.39 381.68C688.01 384.52 687.81 387.4 687.81 390.34C687.81 393.28 688 396.16 688.39 399C690.42 414.16 697.68 427.69 708.29 437.68C711.19 440.41 714.33 442.88 717.69 445.04C722 447.82 726.66 450.11 731.58 451.8C738.25 454.12 745.4 455.38 752.84 455.38C757.3 455.38 761.65 454.93 765.87 454.07C768.5 453.53 771.08 452.84 773.59 451.98C782.56 448.97 790.65 444.04 797.39 437.68C810 425.81 817.88 408.98 817.88 390.34C817.89 386.07 817.48 381.89 816.68 377.84ZM792.39 437.68C786.64 442.49 780.02 446.26 772.79 448.75C770.28 449.6 767.7 450.3 765.04 450.83C761.1 451.64 757.02 452.05 752.85 452.05C745.58 452.05 738.58 450.78 732.09 448.46C731.76 448.33 731.41 448.22 731.08 448.09C724.56 445.63 718.57 442.09 713.32 437.69C699.77 426.36 691.15 409.35 691.15 390.35C691.15 375.39 696.5 361.66 705.38 350.98C714.27 340.29 726.68 332.65 740.81 329.84C744.7 329.07 748.73 328.66 752.84 328.66C754.49 328.66 756.15 328.72 757.78 328.85C771.26 329.93 783.55 335.35 793.21 343.73C801.02 350.5 807.13 359.21 810.77 369.09C812.4 373.52 813.53 378.17 814.11 383C814.39 385.41 814.55 387.86 814.55 390.35C814.55 409.33 805.93 426.35 792.39 437.68Z" fill="#E26702"/>
<path d="M758.23 384.87V369.1C762.86 369.65 767.68 371.23 772.42 373.92L777.05 362.5C771.96 359.25 765.18 357.41 758.23 356.84V346.73H748.95V357.03C745.91 357.38 743.2 358.01 740.8 358.9C731.64 362.25 727.15 369.18 727.15 376.96C727.15 386.74 733.4 391.16 740.8 393.83C743.44 394.78 746.23 395.5 748.95 396.16V411.64C746.19 411.37 743.42 410.78 740.8 409.95C737.09 408.76 733.67 407.06 730.95 405.06L726.99 413.86L725.86 416.37C730.95 420.35 739.77 423.23 748.95 423.79V433.9H758.23V423.51C767.29 422.42 773.43 418.78 776.79 413.86C777.24 413.18 777.65 412.49 778.01 411.77C779.23 409.29 779.83 406.57 779.83 403.75C779.84 390.71 768.52 387.29 758.23 384.87ZM758.23 398.5C762.21 399.9 764.9 401.66 764.9 404.9C764.9 407.88 762.86 410.29 758.23 411.3V398.5ZM742.1 376.24C742.1 373.19 744.05 370.49 748.96 369.38V382.56C744.88 381.26 742.1 379.49 742.1 376.24Z" fill="#FAE00E"/>
<path d="M950.46 520.32C950.46 559.62 918.5 591.57 879.22 591.57C864.25 591.57 850.35 586.93 838.87 579.01C832.79 574.81 827.38 569.7 822.86 563.86C813.52 551.81 807.97 536.7 807.97 520.32C807.97 481.04 839.93 449.08 879.22 449.08C895.62 449.08 910.73 454.65 922.77 464C924.03 464.96 925.23 465.96 926.41 467.01C941.15 480.07 950.46 499.13 950.46 520.32Z" fill="#FF9C00"/>
<path d="M819.92 537.37H816.46C817.46 541.08 818.79 544.66 820.41 548.08H824.13C822.41 544.69 820.98 541.09 819.92 537.37ZM943.04 507.78C942.54 505.21 941.89 502.7 941.08 500.25C940.96 499.85 940.82 499.47 940.7 499.08C940.62 498.85 940.55 498.62 940.46 498.4C939.42 495.48 938.16 492.65 936.71 489.93C935.93 488.44 935.08 486.99 934.18 485.58C922.65 467.39 902.33 455.29 879.22 455.29C876.69 455.29 874.19 455.43 871.73 455.73C871.04 455.81 870.36 455.9 869.68 456C868.14 456.22 866.61 456.5 865.11 456.85C863.81 457.13 862.53 457.45 861.26 457.82C857.59 458.87 854.05 460.24 850.68 461.9C846.34 464.03 842.28 466.62 838.54 469.62C837.13 470.75 835.76 471.94 834.45 473.2C829.86 477.57 825.89 482.6 822.71 488.16C821.53 490.21 820.46 492.34 819.53 494.54C818.55 496.76 817.71 499.06 817 501.4C816.62 502.66 816.27 503.94 815.96 505.24C815.32 507.93 814.84 510.69 814.55 513.49C814.46 514.31 814.4 515.13 814.34 515.95C814.24 517.4 814.19 518.86 814.19 520.32C814.19 521.22 814.2 522.12 814.25 523.01C814.29 524.23 814.38 525.45 814.49 526.67C814.85 530.33 815.5 533.91 816.45 537.37C817.45 541.08 818.78 544.66 820.4 548.08C821.97 551.39 823.8 554.55 825.89 557.52C829.58 562.81 834.06 567.53 839.13 571.52C840.84 572.87 842.62 574.12 844.47 575.29C845 575.62 845.52 575.94 846.06 576.27C855.77 582.04 867.11 585.37 879.21 585.37C884.7 585.37 890.04 584.69 895.13 583.39C911.33 579.31 925.14 569.11 933.94 555.42C934.98 553.83 935.93 552.19 936.81 550.49C937.87 548.48 938.84 546.4 939.68 544.27C942.63 536.85 944.25 528.77 944.25 520.32C944.26 516.04 943.83 511.84 943.04 507.78ZM936.3 543.74C936.22 543.93 936.15 544.12 936.06 544.32C936.06 544.33 936.06 544.33 936.05 544.35C935.25 546.25 934.36 548.1 933.38 549.89C925.59 564.09 912.38 574.92 896.55 579.55C894.37 580.2 892.12 580.73 889.84 581.13C886.39 581.73 882.84 582.04 879.22 582.04C871.74 582.04 864.57 580.71 857.94 578.26C854.14 576.86 850.52 575.09 847.11 573.01C844.69 571.52 842.38 569.88 840.2 568.08C834.49 563.41 829.64 557.74 825.91 551.34C825.28 550.28 824.69 549.2 824.14 548.09C822.42 544.69 821 541.1 819.93 537.38C818.93 533.93 818.24 530.35 817.85 526.68C817.8 526.17 817.75 525.64 817.71 525.11C817.59 523.53 817.53 521.94 817.53 520.32C817.53 518.84 817.58 517.38 817.68 515.95C817.69 515.85 817.69 515.76 817.71 515.67C817.97 512.09 818.54 508.61 819.4 505.24C819.84 503.5 820.35 501.79 820.93 500.11C821.6 498.21 822.34 496.35 823.19 494.54C826.04 488.37 829.87 482.74 834.49 477.87C838.99 473.12 844.24 469.09 850.04 465.98C853.48 464.12 857.11 462.59 860.88 461.4C862.27 460.98 863.68 460.59 865.1 460.26C866.5 459.94 867.9 459.66 869.33 459.43C870.1 459.3 870.87 459.19 871.65 459.1C874.14 458.79 876.65 458.64 879.22 458.64C903.83 458.64 925.11 473.11 935.01 494C935.78 495.62 936.49 497.28 937.11 498.98C937.43 499.85 937.74 500.74 938.01 501.62C938.18 502.09 938.32 502.57 938.45 503.04C939.16 505.43 939.72 507.88 940.12 510.38C940.18 510.71 940.24 511.06 940.29 511.41C940.71 514.32 940.93 517.31 940.93 520.34C940.92 528.61 939.28 536.51 936.3 543.74Z" fill="#E26702"/>
<path d="M906.08 531.41L906.04 531.22C905.67 528.22 904.6 525.81 903.06 523.83C900.02 519.9 895.08 517.74 889.86 516.22C888.12 515.71 886.34 515.27 884.6 514.86V499.09C889.23 499.64 894.06 501.22 898.79 503.91L903.42 492.49C898.33 489.24 891.55 487.4 884.6 486.83V476.72H875.32V487.02C873.04 487.28 870.95 487.7 869.03 488.26C867.8 488.63 866.63 489.06 865.55 489.53C861.16 491.47 857.98 494.28 855.99 497.64C854.34 500.44 853.51 503.62 853.51 506.95C853.51 508.19 853.61 509.35 853.81 510.43V510.44C854.62 514.97 857.02 518.1 860.25 520.37C864.45 523.35 870.04 524.87 875.31 526.16V541.64C870.97 541.22 866.64 540.01 862.85 538.28C860.81 537.36 858.94 536.27 857.31 535.06L856.99 535.77L856.13 537.69L852.22 546.38C852.81 546.85 853.46 547.3 854.16 547.73C859.38 551.01 867.21 553.31 875.32 553.8V563.91H884.6V553.52C896.52 552.08 903.39 546.23 905.5 538.87C905.97 537.24 906.21 535.52 906.21 533.78C906.21 532.95 906.15 532.16 906.08 531.41ZM868.46 506.22C868.46 503.69 869.79 501.41 873.05 500.07C873.72 499.79 874.47 499.54 875.32 499.35V512.53C871.25 511.24 868.46 509.47 868.46 506.22ZM884.6 541.29V528.49C884.95 528.62 885.29 528.73 885.61 528.87C885.62 528.86 885.62 528.87 885.62 528.87C889.05 530.2 891.26 531.94 891.26 534.89C891.26 535.22 891.23 535.54 891.17 535.87C890.78 538.39 888.72 540.39 884.6 541.29Z" fill="#FAE00E"/>
<path d="M516.02 493.42C528.678 493.42 538.94 483.158 538.94 470.5C538.94 457.842 528.678 447.58 516.02 447.58C503.362 447.58 493.1 457.842 493.1 470.5C493.1 483.158 503.362 493.42 516.02 493.42Z" fill="#006F7C"/>
<path d="M296.86 218.35L295.94 232.46C283.24 228.42 280.58 216.31 280.16 213.73C280.1 213.41 280.08 213.24 280.08 213.24L282.53 209.51L286.6 212.02L296.86 218.35Z" fill="#FDA160"/>
<path d="M305.37 218.26C301.5 225.64 281.34 227.73 278.53 207.46C278.45 206.96 278.4 206.45 278.35 205.92C278.13 203.51 278.12 201.34 278.29 199.38C278.34 198.48 278.44 197.64 278.57 196.84C279.85 188.89 284.02 185 287.24 183.14C289.52 181.82 291.33 181.52 291.33 181.52L291.61 181.61L306.9 186.42C306.9 186.42 307.3 190.4 307.5 195.64C307.82 203.34 307.73 213.77 305.37 218.26Z" fill="#FDA160"/>
<path d="M307.51 195.65C305.3 197.34 301.93 198.66 297.39 197.02C288.45 193.76 289.9 199.01 284.71 197.79C284.98 198.01 287.43 199.95 286.83 202.68C286.62 203.68 285.98 204.8 284.69 205.96C282.29 208.13 280.39 203.88 279.06 198.83C278.89 198.18 278.73 197.51 278.57 196.84C277.43 191.84 276.83 186.77 276.83 186.77L287.25 183.14L291.62 181.61L306.91 186.42C306.91 186.42 307.31 190.4 307.51 195.65Z" fill="#FDA160"/>
<path d="M265.42 190.8C266.12 194.55 268.8 197.66 270.06 201.27C270.99 203.91 271.72 206.67 273.23 209.03C274.75 211.39 277.27 213.33 280.07 213.24C282.56 204.42 282.71 201.56 282.5 192.4C286.27 194.79 291.44 190.25 295.76 191.37C299.21 192.26 303.01 192.68 306.23 191.15C309.08 189.79 311.08 187.02 312.09 184.02C313.6 179.54 314.4 172.67 309.42 170.09C307.66 169.18 305.62 168.95 303.64 169.06C299.64 169.27 295.81 170.74 292.22 172.52C288.78 174.22 285.28 176.27 281.45 176.19C272.23 175.98 263.64 181.28 265.42 190.8Z" fill="#080A3C"/>
<path d="M276.47 203.28C276.45 206.15 278.76 208.5 281.63 208.53C284.5 208.55 286.85 206.24 286.88 203.37C286.9 200.5 284.59 198.15 281.72 198.12C278.84 198.1 276.49 200.41 276.47 203.28Z" fill="#FDA160"/>
<path d="M292.39 241.03C307.43 282.66 307.43 335.57 307.43 335.57L316.26 345.54L322.6 334.72C324.41 277.48 294.68 239.73 294.68 239.73L292.39 241.03Z" fill="#A8DEE3"/>
<path d="M799.41 123.08H466.76V162.11H799.41V123.08Z" fill="#97C7DF"/>
<path opacity="0.5" d="M950.46 520.32C950.46 559.62 918.5 591.57 879.22 591.57C864.25 591.57 850.35 586.93 838.87 579.01C832.79 574.81 827.38 569.7 822.86 563.86C823.9 564.66 824.96 565.44 826.04 566.18C837.52 574.1 851.42 578.74 866.39 578.74C905.67 578.74 937.63 546.78 937.63 507.49C937.63 491.12 932.09 476.03 922.77 464C924.03 464.96 925.23 465.96 926.41 467.01C941.15 480.07 950.46 499.13 950.46 520.32Z" fill="#FF9C00"/>
<path opacity="0.5" d="M824.1 390.23C824.1 429.53 792.14 461.48 752.86 461.48C737.89 461.48 723.99 456.84 712.51 448.92C706.43 444.72 701.02 439.61 696.5 433.77C697.54 434.57 698.6 435.35 699.68 436.09C711.16 444.01 725.06 448.65 740.03 448.65C779.31 448.65 811.27 416.69 811.27 377.4C811.27 361.03 805.73 345.94 796.41 333.91C797.67 334.87 798.87 335.87 800.05 336.92C814.8 349.97 824.1 369.03 824.1 390.23Z" fill="#FF9C00"/>
<path d="M851.08 488.22C841.9 497.4 832.12 502.5 829.23 499.61C826.34 496.72 831.44 486.94 840.62 477.76C849.8 468.58 859.58 463.48 862.47 466.37C865.36 469.26 860.26 479.04 851.08 488.22Z" fill="#FF9C00"/>
<path d="M723.602 358.203C732.783 349.021 737.884 339.236 734.994 336.346C732.104 333.456 722.318 338.556 713.137 347.738C703.956 356.919 698.856 366.704 701.746 369.594C704.636 372.484 714.421 367.384 723.602 358.203Z" fill="#FF9C00"/>
<path d="M303.61 361.29C303.1 361.29 302.61 361.03 302.32 360.57L270.35 307.61L290.98 259.81C291.31 259.05 292.19 258.7 292.95 259.03C293.71 259.36 294.06 260.24 293.73 261L273.71 307.38L304.89 359.02C305.32 359.73 305.09 360.65 304.38 361.08C304.14 361.22 303.88 361.29 303.61 361.29Z" fill="#554CA1"/>
<path d="M367.48 335.43C367.2 335.43 366.92 335.35 366.67 335.19C343.04 320.12 326.85 291.57 326.18 290.36C325.77 289.64 326.03 288.72 326.76 288.32C327.48 287.92 328.4 288.17 328.8 288.9C328.96 289.19 345.3 318.01 368.29 332.67C368.99 333.12 369.19 334.04 368.75 334.74C368.46 335.18 367.98 335.43 367.48 335.43Z" fill="#8C84BE"/>
<path d="M469.89 387.57L463.62 383.11L521 302.46L564.89 318.05L652.62 233.03L676.04 250.25L760.18 178.59L765.17 184.45L676.39 260.06L653.3 243.08L566.81 326.9L523.9 311.66L469.89 387.57Z" fill="#09053D"/>
<path d="M763.49 198.91L760.56 182.31L745.29 175.16L778.37 168.67L763.49 198.91Z" fill="#09053D"/>
</svg>
